<svg xmlns="http://www.w3.org/2000/svg" viewBox="0 0 1200 900"><defs><linearGradient id="bg" x1="0" y1="0" x2="1" y2="1"><stop stop-color="#eff0ee"/><stop offset="1" stop-color="#d7dad7"/></linearGradient><linearGradient id="kb" x1="0" y1="0" x2="1" y2="1"><stop stop-color="#3b4042"/><stop offset="1" stop-color="#151719"/></linearGradient></defs><rect width="1200" height="900" fill="url(#bg)"/><ellipse cx="600" cy="700" rx="390" ry="55" fill="#aeb3b1" opacity=".5"/><g transform="rotate(-8 600 430)"><rect x="250" y="250" width="700" height="330" rx="28" fill="url(#kb)"/><g fill="#777d7e"><rect x="285" y="285" width="40" height="42" rx="7"/><rect x="337" y="285" width="40" height="42" rx="7"/><rect x="389" y="285" width="40" height="42" rx="7"/><rect x="441" y="285" width="40" height="42" rx="7"/><rect x="493" y="285" width="40" height="42" rx="7"/><rect x="545" y="285" width="40" height="42" rx="7"/><rect x="597" y="285" width="40" height="42" rx="7"/><rect x="649" y="285" width="40" height="42" rx="7"/><rect x="701" y="285" width="40" height="42" rx="7"/><rect x="753" y="285" width="40" height="42" rx="7"/><rect x="805" y="285" width="40" height="42" rx="7"/><rect x="857" y="285" width="40" height="42" rx="7"/><rect x="285" y="347" width="40" height="42" rx="7"/><rect x="337" y="347" width="40" height="42" rx="7"/><rect x="389" y="347" width="40" height="42" rx="7"/><rect x="441" y="347" width="40" height="42" rx="7"/><rect x="493" y="347" width="40" height="42" rx="7"/><rect x="545" y="347" width="40" height="42" rx="7"/><rect x="597" y="347" width="40" height="42" rx="7"/><rect x="649" y="347" width="40" height="42" rx="7"/><rect x="701" y="347" width="40" height="42" rx="7"/><rect x="753" y="347" width="40" height="42" rx="7"/><rect x="805" y="347" width="40" height="42" rx="7"/><rect x="857" y="347" width="40" height="42" rx="7"/><rect x="285" y="409" width="40" height="42" rx="7"/><rect x="337" y="409" width="40" height="42" rx="7"/><rect x="389" y="409" width="40" height="42" rx="7"/><rect x="441" y="409" width="40" height="42" rx="7"/><rect x="493" y="409" width="40" height="42" rx="7"/><rect x="545" y="409" width="40" height="42" rx="7"/><rect x="597" y="409" width="40" height="42" rx="7"/><rect x="649" y="409" width="40" height="42" rx="7"/><rect x="701" y="409" width="40" height="42" rx="7"/><rect x="753" y="409" width="40" height="42" rx="7"/><rect x="805" y="409" width="40" height="42" rx="7"/><rect x="857" y="409" width="40" height="42" rx="7"/><rect x="285" y="471" width="40" height="42" rx="7"/><rect x="337" y="471" width="40" height="42" rx="7"/><rect x="389" y="471" width="40" height="42" rx="7"/><rect x="441" y="471" width="40" height="42" rx="7"/><rect x="493" y="471" width="40" height="42" rx="7"/><rect x="545" y="471" width="40" height="42" rx="7"/><rect x="597" y="471" width="40" height="42" rx="7"/><rect x="649" y="471" width="40" height="42" rx="7"/><rect x="701" y="471" width="40" height="42" rx="7"/><rect x="753" y="471" width="40" height="42" rx="7"/><rect x="805" y="471" width="40" height="42" rx="7"/><rect x="857" y="471" width="40" height="42" rx="7"/></g><rect x="390" y="470" width="390" height="45" rx="9" fill="#777d7e"/><rect x="520" y="540" width="160" height="18" rx="9" fill="#0b0d0e"/></g></svg>