<svg xmlns="http://www.w3.org/2000/svg" viewBox="0 0 1200 900"><defs><linearGradient id="bg" x1="0" y1="0" x2="1" y2="1"><stop stop-color="#eff1ef"/><stop offset="1" stop-color="#d6dad8"/></linearGradient><linearGradient id="hub" x1="0" y1="0" x2="1" y2="1"><stop stop-color="#a8b0b1"/><stop offset="1" stop-color="#5e6769"/></linearGradient></defs><rect width="1200" height="900" fill="url(#bg)"/><ellipse cx="600" cy="690" rx="300" ry="48" fill="#aeb4b2" opacity=".5"/><g transform="rotate(-10 600 430)"><rect x="340" y="300" width="520" height="220" rx="28" fill="url(#hub)"/><rect x="860" y="360" width="170" height="50" rx="20" fill="#747d7e"/><g fill="#202426"><rect x="400" y="355" width="62" height="60" rx="10"/><rect x="480" y="355" width="62" height="60" rx="10"/><rect x="560" y="355" width="62" height="60" rx="10"/><rect x="640" y="355" width="62" height="60" rx="10"/><rect x="720" y="355" width="62" height="60" rx="10"/></g><g fill="#303638"><rect x="430" y="445" width="100" height="28" rx="8"/><rect x="550" y="445" width="100" height="28" rx="8"/><rect x="670" y="445" width="100" height="28" rx="8"/></g></g></svg>